<mxfile host="app.diagrams.net" modified="2023-04-28T17:07:26.398Z" agent="Mozilla/5.0 (Windows NT 10.0; Win64; x64) AppleWebKit/537.36 (KHTML, like Gecko) Chrome/112.0.0.0 Safari/537.36" etag="eUmQmd0l6N5kRxyXluDR" version="21.2.3" type="device">
  <diagram name="Страница 1" id="2rOCl_8TKVGF28P0EThd">
    <mxGraphModel dx="1320" dy="716" grid="1" gridSize="10" guides="1" tooltips="1" connect="1" arrows="1" fold="1" page="1" pageScale="1" pageWidth="827" pageHeight="1169" math="0" shadow="0">
      <root>
        <mxCell id="0" />
        <mxCell id="1" parent="0" />
        <mxCell id="3ZQ9HnF1xHbl16b32K3Q-1" value="&amp;lt;&amp;lt;Device&amp;gt;&amp;gt;&lt;br&gt;Application" style="verticalAlign=top;align=left;spacingTop=8;spacingLeft=2;spacingRight=12;shape=cube;size=10;direction=south;fontStyle=4;html=1;" parent="1" vertex="1">
          <mxGeometry x="210" y="220" width="180" height="190" as="geometry" />
        </mxCell>
        <mxCell id="3ZQ9HnF1xHbl16b32K3Q-2" value="&amp;lt;&amp;lt;Device&amp;gt;&amp;gt;&lt;br&gt;DbServer" style="verticalAlign=top;align=left;spacingTop=8;spacingLeft=2;spacingRight=12;shape=cube;size=10;direction=south;fontStyle=4;html=1;" parent="1" vertex="1">
          <mxGeometry x="560" y="220" width="180" height="120" as="geometry" />
        </mxCell>
        <mxCell id="3ZQ9HnF1xHbl16b32K3Q-4" value="" style="edgeStyle=orthogonalEdgeStyle;rounded=0;orthogonalLoop=1;jettySize=auto;html=1;" parent="1" source="3ZQ9HnF1xHbl16b32K3Q-3" target="3ZQ9HnF1xHbl16b32K3Q-2" edge="1">
          <mxGeometry relative="1" as="geometry">
            <Array as="points">
              <mxPoint x="690" y="190" />
              <mxPoint x="650" y="190" />
            </Array>
          </mxGeometry>
        </mxCell>
        <mxCell id="3ZQ9HnF1xHbl16b32K3Q-3" value="Trainings" style="shape=cylinder3;whiteSpace=wrap;html=1;boundedLbl=1;backgroundOutline=1;size=15;" parent="1" vertex="1">
          <mxGeometry x="650" y="70" width="80" height="80" as="geometry" />
        </mxCell>
        <mxCell id="3ZQ9HnF1xHbl16b32K3Q-6" value="" style="edgeStyle=orthogonalEdgeStyle;rounded=0;orthogonalLoop=1;jettySize=auto;html=1;" parent="1" source="3ZQ9HnF1xHbl16b32K3Q-5" target="3ZQ9HnF1xHbl16b32K3Q-2" edge="1">
          <mxGeometry relative="1" as="geometry">
            <Array as="points">
              <mxPoint x="600" y="190" />
              <mxPoint x="650" y="190" />
            </Array>
          </mxGeometry>
        </mxCell>
        <mxCell id="3ZQ9HnF1xHbl16b32K3Q-5" value="Recipes" style="shape=cylinder3;whiteSpace=wrap;html=1;boundedLbl=1;backgroundOutline=1;size=15;" parent="1" vertex="1">
          <mxGeometry x="560" y="70" width="80" height="80" as="geometry" />
        </mxCell>
        <mxCell id="3ZQ9HnF1xHbl16b32K3Q-7" value="Users" style="shape=cylinder3;whiteSpace=wrap;html=1;boundedLbl=1;backgroundOutline=1;size=15;" parent="1" vertex="1">
          <mxGeometry x="470" y="70" width="80" height="80" as="geometry" />
        </mxCell>
        <mxCell id="3ZQ9HnF1xHbl16b32K3Q-8" value="" style="endArrow=none;html=1;rounded=0;entryX=0.5;entryY=1;entryDx=0;entryDy=0;entryPerimeter=0;" parent="1" target="3ZQ9HnF1xHbl16b32K3Q-7" edge="1">
          <mxGeometry width="50" height="50" relative="1" as="geometry">
            <mxPoint x="600" y="190" as="sourcePoint" />
            <mxPoint x="470" y="250" as="targetPoint" />
            <Array as="points">
              <mxPoint x="510" y="190" />
            </Array>
          </mxGeometry>
        </mxCell>
        <mxCell id="3ZQ9HnF1xHbl16b32K3Q-9" value="" style="endArrow=none;html=1;rounded=0;exitX=0.5;exitY=-0.009;exitDx=0;exitDy=0;exitPerimeter=0;entryX=0.505;entryY=0.979;entryDx=0;entryDy=0;entryPerimeter=0;" parent="1" source="3ZQ9HnF1xHbl16b32K3Q-1" target="3ZQ9HnF1xHbl16b32K3Q-2" edge="1">
          <mxGeometry width="50" height="50" relative="1" as="geometry">
            <mxPoint x="400" y="290" as="sourcePoint" />
            <mxPoint x="450" y="240" as="targetPoint" />
            <Array as="points">
              <mxPoint x="450" y="315" />
              <mxPoint x="450" y="280" />
            </Array>
          </mxGeometry>
        </mxCell>
        <mxCell id="3ZQ9HnF1xHbl16b32K3Q-10" value="«Component»&lt;br&gt;&lt;b&gt;User&lt;/b&gt;" style="html=1;dropTarget=0;" parent="1" vertex="1">
          <mxGeometry x="230" y="270" width="120" height="30" as="geometry" />
        </mxCell>
        <mxCell id="3ZQ9HnF1xHbl16b32K3Q-11" value="" style="shape=module;jettyWidth=8;jettyHeight=4;" parent="3ZQ9HnF1xHbl16b32K3Q-10" vertex="1">
          <mxGeometry x="1" width="20" height="20" relative="1" as="geometry">
            <mxPoint x="-27" y="7" as="offset" />
          </mxGeometry>
        </mxCell>
        <mxCell id="3ZQ9HnF1xHbl16b32K3Q-12" value="«Component»&lt;br&gt;&lt;b&gt;Trainig&lt;/b&gt;" style="html=1;dropTarget=0;" parent="1" vertex="1">
          <mxGeometry x="230" y="370" width="120" height="30" as="geometry" />
        </mxCell>
        <mxCell id="3ZQ9HnF1xHbl16b32K3Q-13" value="" style="shape=module;jettyWidth=8;jettyHeight=4;" parent="3ZQ9HnF1xHbl16b32K3Q-12" vertex="1">
          <mxGeometry x="1" width="20" height="20" relative="1" as="geometry">
            <mxPoint x="-27" y="7" as="offset" />
          </mxGeometry>
        </mxCell>
        <mxCell id="3ZQ9HnF1xHbl16b32K3Q-14" value="«Component»&lt;br&gt;&lt;b&gt;Recipe&lt;/b&gt;" style="html=1;dropTarget=0;" parent="1" vertex="1">
          <mxGeometry x="230" y="320" width="120" height="30" as="geometry" />
        </mxCell>
        <mxCell id="3ZQ9HnF1xHbl16b32K3Q-15" value="" style="shape=module;jettyWidth=8;jettyHeight=4;" parent="3ZQ9HnF1xHbl16b32K3Q-14" vertex="1">
          <mxGeometry x="1" width="20" height="20" relative="1" as="geometry">
            <mxPoint x="-27" y="7" as="offset" />
          </mxGeometry>
        </mxCell>
      </root>
    </mxGraphModel>
  </diagram>
</mxfile>
